<?xml version="1.0" encoding="utf-8"?>
<!-- Generator: Adobe Illustrator 21.0.0, SVG Export Plug-In . SVG Version: 6.00 Build 0)  -->
<svg version="1.1" id="Layer_1" xmlns="http://www.w3.org/2000/svg" xmlns:xlink="http://www.w3.org/1999/xlink" x="0px" y="0px"
	 viewBox="0 0 100 100" style="enable-background:new 0 0 100 100;" xml:space="preserve">
<g>
	<rect x="66.7" y="24.2" transform="matrix(0.7071 -0.7071 0.7071 0.7071 -1.7109 57.8694)" width="4.5" height="13.5"/>
	<rect x="63.7" y="31.7" transform="matrix(0.7071 -0.7071 0.7071 0.7071 -5.5281 56.2889)" width="3" height="6.3"/>
	<rect x="22.5" y="67.4" transform="matrix(0.707 -0.7072 0.7072 0.707 -38.9326 42.4588)" width="18.6" height="1.6"/>
	<path d="M39,48.6c-3.1,3.1-3.1,8.1,0,11.2l1.2,1.2c3.1,3.1,8.1,3.1,11.2,0L69.4,43L57,30.6L39,48.6z M50.3,59.3l-3.1-3.1l1.1-1.1
		l3.1,3.1L50.3,59.3z M53.7,55.9l-2.4-2.4l1.1-1.1l2.4,2.4L53.7,55.9z M57.1,52.5L54,49.4l1.1-1.1l3.1,3.1L57.1,52.5z M62,41.4
		l3.1,3.1l-1.1,1.1l-3.1-3.1L62,41.4z M59.3,45.5l2.4,2.4l-1.1,1.1l-2.4-2.4L59.3,45.5z"/>
</g>
</svg>
